<?xml version="1.0" encoding="UTF-8"?>
<!DOCTYPE svg PUBLIC "-//W3C//DTD SVG 1.1//EN" "http://www.w3.org/Graphics/SVG/1.1/DTD/svg11.dtd">
<svg version="1.1" xmlns="http://www.w3.org/2000/svg" xmlns:xlink="http://www.w3.org/1999/xlink" x="0" y="0" width="468" height="360" viewBox="0, 0, 468, 360">
  <g id="Layer_1">
    <g>
      <path d="M395.371,14.694 C424.911,14.695 446.456,39.982 446.456,68.699 L446.455,282.751 C446.456,311.468 424.911,336.756 395.372,336.756 L367.397,336.756 C376.033,326.922 380.772,314.75 384.68,302.486 L395.371,302.486 C404.658,302.486 412.186,293.65 412.186,282.751 L412.185,68.699 C412.186,57.8 404.658,48.965 395.372,48.964 L72.628,48.964 C63.343,48.965 55.815,57.8 55.815,68.699 L55.814,282.751 C55.815,293.65 63.343,302.486 72.629,302.486 L322.574,302.486 C321.272,304.804 321.853,304.028 321.1,304.994 C312.785,310.879 304.209,316.377 295.612,321.836 C287.12,327.089 278.468,332.094 269.636,336.756 L72.628,336.756 C43.09,336.756 21.545,311.468 21.545,282.751 L21.544,68.699 C21.545,39.982 43.09,14.695 72.629,14.694 L395.371,14.694 z" fill="#000000"/>
      <path d="M274.584,65.123 L274.584,126.171 L306.204,126.171 L306.204,161.235 L274.584,161.235 L274.584,232.928 Q275.523,247.33 288.046,247.017 C292.178,247.439 295.629,245.693 299.244,244.01 L299.25,244.007 C304.719,240.067 302.46,241.955 306.204,238.564 L306.113,238.891 C309.907,235.324 311.087,228.916 308.884,224.217 C308.885,224.217 298.801,225.46 300.665,224.217 C318.473,212.345 319.143,192.679 319.143,192.678 C319.143,192.679 326.18,234.215 326.6,252.138 C326.684,280.766 297.366,284.556 274.613,282.079 L274.584,282.08 Q256.739,282.081 246.564,268.462 Q236.39,254.844 236.39,234.807 L236.389,161.235 L217.244,161.235 L175.238,279.286 L135.478,279.286 L81.004,126.195 L118.573,126.195 L155.202,230.134 L192.144,126.195 L211.344,126.195 L211.344,126.171 L236.389,126.171 L236.389,84.22 L274.584,65.123 z" fill="#000000"/>
      <path d="M378.985,84.4 Q378.985,92.54 373.35,98.175 Q367.714,103.811 360.201,103.811 Q352.061,103.811 346.739,98.489 Q341.416,93.166 341.416,84.4 Q341.416,76.887 346.895,71.565 Q352.374,66.242 360.201,66.242 Q367.714,66.242 373.35,71.565 Q378.985,76.887 378.985,84.4 z M378.985,126.352 L378.985,279.443 Q374.915,329.221 331.398,355.519 L314.179,324.838 Q337.973,308.559 341.416,279.443 L341.416,126.352 z" fill="#000000"/>
    </g>
  </g>
</svg>
